<?xml version="1.0" encoding="UTF-8" standalone="no"?>
<svg
   version="1.1"
   viewBox="-10 0 275 256"
   id="svg2305"
   sodipodi:docname="yu.svg"
   inkscape:version="1.1 (c68e22c387, 2021-05-23)"
   xmlns:inkscape="http://www.inkscape.org/namespaces/inkscape"
   xmlns:sodipodi="http://sodipodi.sourceforge.net/DTD/sodipodi-0.dtd"
   xmlns="http://www.w3.org/2000/svg"
   xmlns:svg="http://www.w3.org/2000/svg">
  <defs
     id="defs2309">
    <linearGradient
       id="linearGradient857"
       inkscape:swatch="gradient">
      <stop
         style="stop-color:#000000;stop-opacity:1;"
         offset="0"
         id="stop853" />
      <stop
         style="stop-color:#000000;stop-opacity:0;"
         offset="1"
         id="stop855" />
    </linearGradient>
  </defs>
  <sodipodi:namedview
     id="namedview2307"
     pagecolor="#ffffff"
     bordercolor="#666666"
     borderopacity="1.0"
     inkscape:pageshadow="2"
     inkscape:pageopacity="0.0"
     inkscape:pagecheckerboard="0"
     showgrid="false"
     inkscape:zoom="3.1835938"
     inkscape:cx="58.738649"
     inkscape:cy="113.70797"
     inkscape:window-width="1920"
     inkscape:window-height="1001"
     inkscape:window-x="-9"
     inkscape:window-y="-9"
     inkscape:window-maximized="1"
     inkscape:current-layer="svg2305" />
  <path
     fill="currentColor"
     d="M129 112q1 -4 5 -2q7 2 14 7q3 5 -1 5q-6 3 -6 7q-6 46 8 84q-1 6 -7 2q-3 -5 -8 -9q-7 -3 -11 -9q-3 -2 1 -2q18 9 15 1q-1 -4 -2 -16q-1 -9 -1 -13l-9 3q-11 2 -18 3q0 16 2 31q0 6 -3 6t-4 -5q0 -1 -1 -6q-1 -3 0 -4v-3q1 -1 2 -3q1 -24 -1 -67q-1 -3 2 1q9 -8 23 -11 zM57 75q-1 -4 1 -2q9 7 8 9q-2 3 -3 17v5q9 -4 16 -6q2 1 2 2q1 2 0 2l-18 12q-3 29 -1 36q6 -6 13 -12q9 -8 16 -16q5 -6 2 1q-28 34 -54 55q-7 8 -20 4q-5 -1 0 -2q9 2 35 -23q0 -13 -1 -15q-2 -3 2 -5q1 -2 2 -20q-14 7 -22 7q-3 1 -4 0q0 -1 3 -3q15 -7 24 -13v-22 q0 -6 -1 -11zM134 123q-1 -11 -6 -8q-2 2 -6 4q-3 1 -4 2q-7 2 -11 5q1 2 1 20q12 -7 21 -9q2 1 1 2q-2 3 -6 7q-5 2 -6 4l-3 3v1q-3 1 -1 -3q1 -3 0 -3q-1 -1 -6 0q-1 14 1 22q1 0 4 -1q8 -3 13 -6h1q3 -2 9 -1q-2 -22 -2 -39zM182 99q-1 -3 2 -1q11 13 11 14q-2 5 -3 10 t0 11q0 55 10 87q1 3 -2 4t-4 -1q-2 -2 -4 -6q-5 -8 -8 -10l-3 -3q-6 -3 -8 -9q-4 -5 1 -1q12 10 16 11h3t1 -1q-2 -13 -4 -37q-3 -26 -3 -49q0 -8 -5 -19zM137 15q8 -3 15 -1q2 1 3 2q0 2 -2 2q-8 1 -27 38q-17 31 -46 68q-5 5 -1 -1q30 -43 57 -94q6 -12 1 -11q-3 0 -3 -1 t3 -2zM147 30q14 2 19 12q18 30 44 63q4 6 11 5q13 0 31 4q6 3 0 2h-13h-12q-10 2 -17 -7q-14 -17 -30 -39q-14 -20 -18 -27t-16 -11q-3 -1 1 -2zM178 77q2 1 2 3q-1 2 -3 2q-18 1 -46 12q-8 3 -18 -1q-6 -1 1 -2q28 -2 40 -13q3 -4 9 -3q6 3 15 2zM79 49q2 1 6 1q4 1 7 1 q3 4 -1 5q-11 -1 -39 11q-10 4 -20 2q-3 0 -3 -1t3 -2q18 -2 34 -9q7 -3 8 -6q1 -4 5 -2zM164 137q7 14 7 31q-1 3 -3 1q-5 -10 -7 -12q-2 -1 -2 -2t3 -2q3 0 0 -15q0 -4 2 -1z"
     id="path2303"
     style="fill:none;stroke:#e90000;stroke-opacity:1" />
  <path
     style="fill:none;stroke:#000000;stroke-width:1px;stroke-linecap:butt;stroke-linejoin:miter;stroke-opacity:1"
     d="m 93,123 v 0"
     id="path2605" />
  <path
     style="fill:none;stroke:#000000;stroke-width:1px;stroke-linecap:butt;stroke-linejoin:miter;stroke-opacity:1"
     d="M 22.667484,68.476073 40.257668,67.219631 72.296931,57.168097 77.479753,52.456441 91.14356,53.79141"
     id="path3122" />
  <path
     style="fill:none;stroke:#000000;stroke-width:1px;stroke-linecap:butt;stroke-linejoin:miter;stroke-opacity:1"
     d="m 58,73 2.988956,9.139876 -0.392638,23.872394 -3.847853,32.66748 -2.120245,2.90552 c 0,0 1.96319,12.09326 1.884662,12.48589 -0.07853,0.39264 -0.07853,0.39264 -0.07853,0.39264"
     id="path3124" />
  <path
     style="fill:none;stroke:#000000;stroke-width:1px;stroke-linecap:butt;stroke-linejoin:miter;stroke-opacity:1"
     d="m 26.907975,125.40859 33.13865,-14.29203 19.239263,-11.465028 v 1.884658"
     id="path3126" />
  <path
     style="fill:none;stroke:#000000;stroke-width:1px;stroke-linecap:butt;stroke-linejoin:miter;stroke-opacity:1"
     d="m 11.98773,179.51411 17.982822,1.72761 43.425766,-39.02823 21.673622,-24.02944"
     id="path3128" />
  <path
     style="fill:none;stroke:#000000;stroke-width:1px;stroke-linecap:butt;stroke-linejoin:miter;stroke-opacity:1"
     d="M 140.45889,16.333742 148.1546,15.705521 118.15705,65.020858 76.223312,127.21472"
     id="path3803" />
  <path
     style="fill:none;stroke:#000000;stroke-width:1px;stroke-linecap:butt;stroke-linejoin:miter;stroke-opacity:1"
     d="m 142.34356,29.997546 13.6638,4.24049 7.06748,6.439264 37.5362,54.812269 14.13497,16.333741 8.00981,2.66994 33.76688,0.78528"
     id="path3807" />
  <path
     style="fill:none;stroke:#000000;stroke-width:1px;stroke-linecap:butt;stroke-linejoin:miter;stroke-opacity:1"
     d="m 108.10552,92.348465 15.54847,1.099386 26.07116,-8.795092 9.42331,-6.753374 17.59019,2.041718"
     id="path3809" />
  <path
     style="fill:none;stroke:#000000;stroke-width:1px;stroke-linecap:butt;stroke-linejoin:miter;stroke-opacity:1"
     d="m 101.66626,117.16319 3.76932,8.32392 2.90552,82.29694 -3.92638,-11.0724"
     id="path3811" />
  <path
     style="fill:none;stroke:#000000;stroke-width:1px;stroke-linecap:butt;stroke-linejoin:miter;stroke-opacity:1"
     d="m 105.43558,125.48711 22.69448,-12.09325 3.61227,-2.19877 14.29202,8.79509 -7.77423,3.29816 -0.39264,44.13252 3.92638,33.2957 4.47608,12.17178 -26.69939,-18.68957"
     id="path3813" />
  <path
     style="fill:none;stroke:#000000;stroke-width:1px;stroke-linecap:butt;stroke-linejoin:miter;stroke-opacity:1"
     d="m 106.14233,147.08221 c 14.13497,-5.02577 20.33865,-8.08835 20.33865,-8.08835 l 0.8638,1.02086 L 114,151"
     id="path3815" />
  <path
     style="fill:none;stroke:#000000;stroke-width:1px;stroke-linecap:butt;stroke-linejoin:miter;stroke-opacity:1"
     d="m 107.32024,171.58282 17.59019,-4.5546 7.30306,-3.14111 5.41841,0.94234"
     id="path3817" />
  <path
     style="fill:none;stroke:#000000;stroke-width:1px;stroke-linecap:butt;stroke-linejoin:miter;stroke-opacity:1"
     d="m 161.11165,132.24049 7.22454,23.87239 0.94233,10.13006 -7.38159,-11.22945 -1.17791,0.0785"
     id="path3819" />
  <path
     style="fill:none;stroke:#000000;stroke-width:1px;stroke-linecap:butt;stroke-linejoin:miter;stroke-opacity:1"
     d="m 178.85889,93.133741 11.9362,17.825769 -1.96319,26.38527 3.21963,32.90307 5.1043,43.8184 1.33496,5.81105 -29.44785,-30.31166"
     id="path3821" />
</svg>
