<?xml version="1.0" encoding="UTF-8" standalone="no"?>
<svg
   version="1.1"
   viewBox="-10 0 275 256"
   id="svg4003"
   sodipodi:docname="yu_2.svg"
   inkscape:version="1.1 (c68e22c387, 2021-05-23)"
   xmlns:inkscape="http://www.inkscape.org/namespaces/inkscape"
   xmlns:sodipodi="http://sodipodi.sourceforge.net/DTD/sodipodi-0.dtd"
   xmlns="http://www.w3.org/2000/svg"
   xmlns:svg="http://www.w3.org/2000/svg">
  <defs
     id="defs4007" />
  <sodipodi:namedview
     id="namedview4005"
     pagecolor="#ffffff"
     bordercolor="#666666"
     borderopacity="1.0"
     inkscape:pageshadow="2"
     inkscape:pageopacity="0.0"
     inkscape:pagecheckerboard="0"
     showgrid="false"
     inkscape:zoom="8.6841551"
     inkscape:cx="131.79175"
     inkscape:cy="196.91035"
     inkscape:window-width="1920"
     inkscape:window-height="1001"
     inkscape:window-x="-9"
     inkscape:window-y="-9"
     inkscape:window-maximized="1"
     inkscape:current-layer="svg4003" />
  <path
     fill="currentColor"
     d="M129 112q1 -4 5 -2q7 2 14 7q3 5 -1 5q-6 3 -6 7q-6 46 8 84q-1 6 -7 2q-3 -5 -8 -9q-7 -3 -11 -9q-3 -2 1 -2q18 9 15 1q-1 -4 -2 -16q-1 -9 -1 -13l-9 3q-11 2 -18 3q0 16 2 31q0 6 -3 6t-4 -5q0 -1 -1 -6q-1 -3 0 -4v-3q1 -1 2 -3q1 -24 -1 -67q-1 -3 2 1q9 -8 23 -11 zM57 75q-1 -4 1 -2q9 7 8 9q-2 3 -3 17v5q9 -4 16 -6q2 1 2 2q1 2 0 2l-18 12q-3 29 -1 36q6 -6 13 -12q9 -8 16 -16q5 -6 2 1q-28 34 -54 55q-7 8 -20 4q-5 -1 0 -2q9 2 35 -23q0 -13 -1 -15q-2 -3 2 -5q1 -2 2 -20q-14 7 -22 7q-3 1 -4 0q0 -1 3 -3q15 -7 24 -13v-22 q0 -6 -1 -11zM134 123q-1 -11 -6 -8q-2 2 -6 4q-3 1 -4 2q-7 2 -11 5q1 2 1 20q12 -7 21 -9q2 1 1 2q-2 3 -6 7q-5 2 -6 4l-3 3v1q-3 1 -1 -3q1 -3 0 -3q-1 -1 -6 0q-1 14 1 22q1 0 4 -1q8 -3 13 -6h1q3 -2 9 -1q-2 -22 -2 -39zM182 99q-1 -3 2 -1q11 13 11 14q-2 5 -3 10 t0 11q0 55 10 87q1 3 -2 4t-4 -1q-2 -2 -4 -6q-5 -8 -8 -10l-3 -3q-6 -3 -8 -9q-4 -5 1 -1q12 10 16 11h3t1 -1q-2 -13 -4 -37q-3 -26 -3 -49q0 -8 -5 -19zM137 15q8 -3 15 -1q2 1 3 2q0 2 -2 2q-8 1 -27 38q-17 31 -46 68q-5 5 -1 -1q30 -43 57 -94q6 -12 1 -11q-3 0 -3 -1 t3 -2zM147 30q14 2 19 12q18 30 44 63q4 6 11 5q13 0 31 4q6 3 0 2h-13h-12q-10 2 -17 -7q-14 -17 -30 -39q-14 -20 -18 -27t-16 -11q-3 -1 1 -2zM178 77q2 1 2 3q-1 2 -3 2q-18 1 -46 12q-8 3 -18 -1q-6 -1 1 -2q28 -2 40 -13q3 -4 9 -3q6 3 15 2zM79 49q2 1 6 1q4 1 7 1 q3 4 -1 5q-11 -1 -39 11q-10 4 -20 2q-3 0 -3 -1t3 -2q18 -2 34 -9q7 -3 8 -6q1 -4 5 -2zM164 137q7 14 7 31q-1 3 -3 1q-5 -10 -7 -12q-2 -1 -2 -2t3 -2q3 0 0 -15q0 -4 2 -1z"
     id="path4001"
     style="stroke:#e50000;fill:none;stroke-opacity:1" />
  <path
     style="fill:none;stroke:#000000;stroke-width:1px;stroke-linecap:butt;stroke-linejoin:miter;stroke-opacity:1"
     d="M 24.524173,68.396947 41.46056,67.419847 71.424936,57.323155 77.055101,53.085187 91,56"
     id="path4194" />
  <path
     style="fill:none;stroke:#000000;stroke-width:1px;stroke-linecap:butt;stroke-linejoin:miter;stroke-opacity:1"
     d="M 28.345699,125.6311 55.406478,114.23103 81,100"
     id="path4196" />
  <path
     style="fill:none;stroke:#000000;stroke-width:1px;stroke-linecap:butt;stroke-linejoin:miter;stroke-opacity:1"
     d="m 12.109232,179.63751 17.963751,1.15152 20.4971,-16.12131 45.600287,-46.98212"
     id="path4198" />
  <path
     style="fill:none;stroke:#000000;stroke-width:1px;stroke-linecap:butt;stroke-linejoin:miter;stroke-opacity:1"
     d="m 53.794346,69.09135 7.830353,10.824311 -1.381827,13.357661 -2.303045,48.363948 v 12.89705"
     id="path4200" />
  <path
     style="fill:none;stroke:#000000;stroke-width:1px;stroke-linecap:butt;stroke-linejoin:miter;stroke-opacity:1"
     d="m 137,15 c 10.75858,1.121315 9.37675,2.503142 6.84341,5.727405 -2.53335,3.224263 -36.84872,62.873128 -36.84872,62.873128 L 80,124"
     id="path4202" />
  <path
     style="fill:none;stroke:#000000;stroke-width:1px;stroke-linecap:butt;stroke-linejoin:miter;stroke-opacity:1"
     d="m 147,30 12.96472,6.618415 19.34558,29.248672 34.08506,45.600293 L 252,114"
     id="path4204" />
  <path
     style="fill:none;stroke:#000000;stroke-width:1px;stroke-linecap:butt;stroke-linejoin:miter;stroke-opacity:1"
     d="m 108.03106,91.891495 14.62433,0.921218 27.52139,-7.945505 8.75157,-6.448526 L 180,80"
     id="path4206" />
  <path
     style="fill:none;stroke:#000000;stroke-width:1px;stroke-linecap:butt;stroke-linejoin:miter;stroke-opacity:1"
     d="m 102.6189,117.9159 3.45457,10.93947 2.30304,76.57624 L 103,195"
     id="path4208" />
  <path
     style="fill:none;stroke:#000000;stroke-width:1px;stroke-linecap:butt;stroke-linejoin:miter;stroke-opacity:1"
     d="m 107,126 17.49783,-11.19321 7.13944,-3.10911 10.82431,6.21822 -5.87277,14.16373 2.76366,57.11552 6.44852,22.68499 -24.87288,-18.19406"
     id="path4210" />
  <path
     style="fill:none;stroke:#000000;stroke-width:1px;stroke-linecap:butt;stroke-linejoin:miter;stroke-opacity:1"
     d="m 108,146 17.41905,-6.20517 -8.98188,8.29096"
     id="path4212" />
  <path
     style="fill:none;stroke:#000000;stroke-width:1px;stroke-linecap:butt;stroke-linejoin:miter;stroke-opacity:1"
     d="m 109,173 c 0,0 13.65539,-5.79893 15.72813,-6.14439 2.07274,-0.34546 12.66675,-2.4182 12.66675,-2.4182"
     id="path4214" />
  <path
     style="fill:none;stroke:#000000;stroke-width:1px;stroke-linecap:butt;stroke-linejoin:miter;stroke-opacity:1"
     d="m 160.88594,132.42509 5.75761,16.69707 2.53335,15.89101 L 162,153"
     id="path4216" />
  <path
     style="fill:none;stroke:#000000;stroke-width:1px;stroke-linecap:butt;stroke-linejoin:miter;stroke-opacity:1"
     d="m 179.3103,93.849083 10.82431,17.387987 -1.15152,19.23043 2.07274,35.35174 2.6485,24.06682 4.49094,28.67291 -30.4002,-29.59413"
     id="path4218" />
</svg>
