<?xml version="1.0" standalone="no"?>
<!DOCTYPE svg PUBLIC "-//W3C//DTD SVG 1.1//EN" "http://www.w3.org/Graphics/SVG/1.1/DTD/svg11.dtd" >
<svg xmlns="http://www.w3.org/2000/svg" xmlns:xlink="http://www.w3.org/1999/xlink" version="1.1" viewBox="-10 0 266 256">
   <path fill="currentColor"
d="M115 79q-14 20 -24 33q-2 46 -7 69q-3 10 -2 14q0 3 -2 4q-1 1 -3 -1q-5 -4 -12 -10q-4 -3 -5 -5q-2 -1 -1 -3q1 -1 4 -1q16 7 16 0q4 -10 5 -25t1 -37q-35 42 -57 45q-5 2 -1 -2q21 -8 57 -51q-2 -16 -9 -15q-4 1 -4 0q1 -2 5 -4q9 -14 14 -40q0 -2 -1 -2h-2
q-11 5 -27 18q-5 5 -14 -1q-4 -1 1 -2q4 1 8 -1q14 -8 28 -15q2 0 4 -7q0 -3 7 0l6 3q1 1 4 2q3 4 -1 6q-7 3 -9 10q-5 15 -13 29q12 2 10 7q-2 4 -1 7q4 -5 12 -14q7 -8 11 -13q5 -5 2 2zM166 -1q0 -2 1 -2q1 -1 3 0q6 4 2 10q-6 10 -13 16q-9 8 -20 19q-8 10 -18 13
q-5 2 -1 -1q45 -40 46 -55zM179 132q-4 -3 1 -2q24 11 46 28q7 7 1 13q-5 5 -10 -2q-16 -25 -38 -37zM117 147q0 -1 1 -1t2 1q-2 8 -1 15q0 4 2 2q2 0 2 2q-2 10 -1 17q-1 7 -8 1q-7 -7 3 -37zM122 103q4 -5 10 -10q2 -1 7 -10q8 -15 22 -33q7 -9 4 -15q-2 -5 2 -1
q9 12 7 15q-3 7 -5 7q-9 5 -32 37q-2 4 -1 5q0 1 4 -1q10 -4 30 -17q7 -4 10 -12q1 -3 5 -5q7 -3 11 1q3 4 3 5t-3 2q-6 3 -13 9q-15 15 -40 44q-2 5 1 2q11 -5 29 -15q4 -2 7 -4q-2 -3 -1 -5q1 -1 6 -1q13 2 19 6q3 5 -2 6q-5 0 -13 -2q-8 3 -21 10l-10 4q2 1 3 1q3 1 5 1
q5 3 1 7q-5 6 -3 12q0 17 1 39q2 19 5 31q0 5 -3 6q-4 1 -6 -3q-19 -24 -21 -38q-3 -7 2 -1q5 9 15 18q2 3 3 2q2 0 2 -4q-1 -40 -9 -67q-12 6 -18 12q-5 5 -7 0q-4 -2 1 -7q16 -19 27 -32q5 -8 9 -12q-12 7 -36 22q-4 3 -5 2q-2 0 -2 -5v-6z" />
</svg>
