<?xml version="1.0" encoding="UTF-8" standalone="no"?>
<svg
   version="1.1"
   viewBox="-10 0 275 256"
   id="svg2305"
   xmlns="http://www.w3.org/2000/svg"
   xmlns:svg="http://www.w3.org/2000/svg">
  <defs
     id="defs2309" />
  <path
     fill="currentColor"
     d="M129 112q1 -4 5 -2q7 2 14 7q3 5 -1 5q-6 3 -6 7q-6 46 8 84q-1 6 -7 2q-3 -5 -8 -9q-7 -3 -11 -9q-3 -2 1 -2q18 9 15 1q-1 -4 -2 -16q-1 -9 -1 -13l-9 3q-11 2 -18 3q0 16 2 31q0 6 -3 6t-4 -5q0 -1 -1 -6q-1 -3 0 -4v-3q1 -1 2 -3q1 -24 -1 -67q-1 -3 2 1q9 -8 23 -11 zM57 75q-1 -4 1 -2q9 7 8 9q-2 3 -3 17v5q9 -4 16 -6q2 1 2 2q1 2 0 2l-18 12q-3 29 -1 36q6 -6 13 -12q9 -8 16 -16q5 -6 2 1q-28 34 -54 55q-7 8 -20 4q-5 -1 0 -2q9 2 35 -23q0 -13 -1 -15q-2 -3 2 -5q1 -2 2 -20q-14 7 -22 7q-3 1 -4 0q0 -1 3 -3q15 -7 24 -13v-22 q0 -6 -1 -11zM134 123q-1 -11 -6 -8q-2 2 -6 4q-3 1 -4 2q-7 2 -11 5q1 2 1 20q12 -7 21 -9q2 1 1 2q-2 3 -6 7q-5 2 -6 4l-3 3v1q-3 1 -1 -3q1 -3 0 -3q-1 -1 -6 0q-1 14 1 22q1 0 4 -1q8 -3 13 -6h1q3 -2 9 -1q-2 -22 -2 -39zM182 99q-1 -3 2 -1q11 13 11 14q-2 5 -3 10 t0 11q0 55 10 87q1 3 -2 4t-4 -1q-2 -2 -4 -6q-5 -8 -8 -10l-3 -3q-6 -3 -8 -9q-4 -5 1 -1q12 10 16 11h3t1 -1q-2 -13 -4 -37q-3 -26 -3 -49q0 -8 -5 -19zM137 15q8 -3 15 -1q2 1 3 2q0 2 -2 2q-8 1 -27 38q-17 31 -46 68q-5 5 -1 -1q30 -43 57 -94q6 -12 1 -11q-3 0 -3 -1 t3 -2zM147 30q14 2 19 12q18 30 44 63q4 6 11 5q13 0 31 4q6 3 0 2h-13h-12q-10 2 -17 -7q-14 -17 -30 -39q-14 -20 -18 -27t-16 -11q-3 -1 1 -2zM178 77q2 1 2 3q-1 2 -3 2q-18 1 -46 12q-8 3 -18 -1q-6 -1 1 -2q28 -2 40 -13q3 -4 9 -3q6 3 15 2zM79 49q2 1 6 1q4 1 7 1 q3 4 -1 5q-11 -1 -39 11q-10 4 -20 2q-3 0 -3 -1t3 -2q18 -2 34 -9q7 -3 8 -6q1 -4 5 -2zM164 137q7 14 7 31q-1 3 -3 1q-5 -10 -7 -12q-2 -1 -2 -2t3 -2q3 0 0 -15q0 -4 2 -1z"
     id="path2303"
     style="fill:none;stroke:#e90000;stroke-opacity:1" />
  <path
     style="fill:none;stroke:#000000;stroke-width:1px;stroke-linecap:butt;stroke-linejoin:miter;stroke-opacity:1"
     d="M 22.981595,65.96319 40.571779,67.847853 73.553374,57.482209 79,49 91,56 v 0"
     id="path2599" />
  <path
     style="fill:none;stroke:#000000;stroke-width:1px;stroke-linecap:butt;stroke-linejoin:miter;stroke-opacity:1"
     d="M 8.218405,178.41472 28.949693,180.92761 71.040491,145.11902 93,123"
     id="path2603" />
  <path
     style="fill:none;stroke:#000000;stroke-width:1px;stroke-linecap:butt;stroke-linejoin:miter;stroke-opacity:1"
     d="m 93,123 v 0"
     id="path2605" />
  <path
     style="fill:none;stroke:#000000;stroke-width:1px;stroke-linecap:butt;stroke-linejoin:miter;stroke-opacity:1"
     d="M 21.096933,122.81718 41.828221,120.93252 79,98"
     id="path2800" />
  <path
     style="fill:none;stroke:#000000;stroke-width:1px;stroke-linecap:butt;stroke-linejoin:miter;stroke-opacity:1"
     d="M 51.565644,68.790184 59.418405,82.296933 59.104294,130.98405 53,142 l 1,15"
     id="path2808" />
  <path
     style="fill:none;stroke:#000000;stroke-width:1px;stroke-linecap:butt;stroke-linejoin:miter;stroke-opacity:1"
     d="M 126.00982,13.820859 145.17055,16.647853 80,124"
     id="path2923" />
  <path
     style="fill:none;stroke:#000000;stroke-width:1px;stroke-linecap:butt;stroke-linejoin:miter;stroke-opacity:1"
     d="m 147,30 19,12 49.21718,72.02209 L 252,114"
     id="path2927" />
  <path
     style="fill:none;stroke:#000000;stroke-width:1px;stroke-linecap:butt;stroke-linejoin:miter;stroke-opacity:1"
     d="m 107.16319,89.835583 17.90429,3.455215 28.89816,-8.795092 L 163,75 l 17,5"
     id="path2929" />
  <path
     style="fill:none;stroke:#000000;stroke-width:1px;stroke-linecap:butt;stroke-linejoin:miter;stroke-opacity:1"
     d="m 104,122 3.4773,58.29939 L 105,189 l 2.79141,23.65276"
     id="path2931" />
  <path
     style="fill:none;stroke:#000000;stroke-width:1px;stroke-linecap:butt;stroke-linejoin:miter;stroke-opacity:1"
     d="m 104,122 24,-7 6,-5 6.14479,8.73374 L 136,167 l 7.91411,39.99877 -29.52638,-16.01963"
     id="path2933" />
  <path
     style="fill:none;stroke:#000000;stroke-width:1px;stroke-linecap:butt;stroke-linejoin:miter;stroke-opacity:1"
     d="m 108,148 22,-9 -12,11 -4,1"
     id="path2935" />
  <path
     style="fill:none;stroke:#000000;stroke-width:1px;stroke-linecap:butt;stroke-linejoin:miter;stroke-opacity:1"
     d="m 109,170 27,-8"
     id="path2937" />
  <path
     style="fill:none;stroke:#000000;stroke-width:1px;stroke-linecap:butt;stroke-linejoin:miter;stroke-opacity:1"
     d="m 160.87607,131.29816 7.85276,27.32761 L 171,168 161,157 v 0"
     id="path2939" />
  <path
     style="fill:none;stroke:#000000;stroke-width:1px;stroke-linecap:butt;stroke-linejoin:miter;stroke-opacity:1"
     d="M 177.52393,89.835583 189.14601,108.99632 194,204 l 4.88344,12.7362 -33.60982,-28.26994"
     id="path2941" />
</svg>
